# xmcd CD database file
#
# Track frame offsets:
#	150
#	24772
#	47002
#
# Disc length: 839 seconds
#
# Revision: 1
# Processed by: cddbd v1.5.1PL0 Copyright (c) Steve Scherf et al.
# Submitted via: CDex 1.51
#
DISCID=16034503
DTITLE=う〜み - みんな
DYEAR=2003
DGENRE=JPop
TTITLE0=みんな
TTITLE1=磯のなで唄
TTITLE2=秋 -TOKI-
EXTD=YEAR: 2003
EXTT0=
EXTT1=
EXTT2=
PLAYORDER=
